<?xml version="1.0" standalone="no"?>
<!DOCTYPE svg PUBLIC "-//W3C//DTD SVG 20010904//EN"
 "http://www.w3.org/TR/2001/REC-SVG-20010904/DTD/svg10.dtd">
<svg version="1.0" xmlns="http://www.w3.org/2000/svg"
 width="525.000000pt" height="525.000000pt" viewBox="0 0 525.000000 525.000000"
 preserveAspectRatio="xMidYMid meet">
<metadata>
Created by potrace 1.14, written by Peter Selinger 2001-2017
</metadata>
<g transform="translate(0.000000,525.000000) scale(0.100000,-0.100000)"
fill="#000000" stroke="none">
<path d="M2565 4994 c-16 -3 -50 -13 -75 -22 -156 -57 -255 -177 -294 -353 -5
-24 -8 -25 -82 -26 -80 0 -94 -7 -94 -49 0 -28 32 -40 108 -38 l62 1 0 -124
c0 -67 -3 -124 -7 -124 -5 -1 -38 -2 -74 -4 -76 -2 -89 -8 -89 -39 0 -37 19
-46 97 -46 l73 0 0 -129 0 -129 -65 2 c-87 2 -105 -6 -105 -43 0 -36 12 -41
101 -41 l69 0 0 -125 0 -125 -73 0 c-78 0 -97 -9 -97 -46 0 -35 24 -46 100
-45 l70 0 0 -124 0 -125 -66 0 c-76 0 -104 -12 -104 -43 0 -38 19 -47 97 -47
l73 0 0 -125 0 -125 -66 0 c-76 0 -104 -12 -104 -43 0 -38 19 -47 97 -47 l74
0 -3 -127 -3 -127 -69 -3 c-89 -3 -96 -6 -96 -43 0 -37 9 -41 97 -44 l68 -1 3
-123 3 -122 -74 0 c-78 0 -97 -9 -97 -47 0 -30 36 -45 99 -40 25 2 52 2 59 -1
9 -3 12 -41 12 -143 0 -161 8 -153 -116 -120 -204 53 -363 206 -424 409 -15
52 -21 104 -23 196 -3 140 -1 145 63 131 69 -15 126 27 101 74 -10 18 -20 21
-85 21 -50 0 -75 4 -78 13 -2 6 -4 62 -3 122 l0 110 78 5 c76 5 96 15 97 47 0
29 -32 43 -101 43 -38 0 -69 1 -70 3 0 1 -3 22 -6 47 -26 208 -223 333 -421
266 -87 -29 -184 -139 -195 -222 l-4 -29 -78 -2 c-80 -1 -94 -7 -99 -39 -6
-35 13 -44 95 -44 l79 0 0 -125 0 -125 -42 -1 c-24 -1 -49 -1 -57 1 -49 6 -89
-35 -69 -72 7 -15 23 -18 88 -18 l80 0 0 -125 0 -125 -73 0 c-81 0 -114 -18
-100 -56 10 -30 23 -34 101 -34 l72 0 1 -67 c0 -38 4 -94 8 -126 5 -37 3 -57
-3 -58 -6 -1 -43 -1 -81 -1 -39 1 -77 -3 -84 -8 -18 -10 -17 -60 0 -71 8 -5
54 -9 102 -8 48 1 89 0 91 -2 1 -2 10 -26 20 -54 58 -164 106 -257 189 -367
75 -99 169 -193 247 -248 19 -14 37 -28 40 -31 3 -4 23 -17 45 -29 22 -13 59
-34 83 -47 60 -34 211 -91 284 -107 58 -13 158 -27 218 -30 25 -1 25 -1 28
-114 l3 -114 -48 2 c-119 4 -132 -2 -119 -55 6 -24 9 -25 86 -25 l80 0 0 -128
0 -128 -62 1 c-77 1 -108 -11 -108 -40 0 -35 23 -46 99 -46 l71 0 0 -153 c0
-105 4 -156 12 -164 9 -9 119 -12 434 -12 371 0 424 2 438 16 14 13 16 52 16
275 0 142 3 259 8 260 4 0 38 2 75 3 69 2 86 11 87 46 0 30 -23 40 -97 40
l-73 0 0 125 0 125 69 0 c73 0 101 14 101 49 0 32 -22 41 -97 41 l-73 0 0 140
c0 138 0 140 23 141 22 0 36 2 132 14 277 34 589 225 779 475 78 102 179 310
201 413 5 27 6 27 84 27 63 0 81 4 94 18 40 44 7 72 -85 72 l-70 0 6 33 c4 17
10 73 13 122 3 50 7 92 9 94 1 1 31 3 66 3 74 0 98 10 98 41 0 38 -19 47 -97
47 l-73 0 0 125 0 124 76 3 c88 3 107 17 86 62 -11 25 -16 26 -87 26 l-75 0 0
125 0 124 76 3 c88 3 107 17 86 62 -11 25 -16 26 -87 26 l-75 0 0 125 0 125
74 0 c53 0 77 4 86 15 14 17 5 64 -13 66 -6 1 -41 3 -77 4 -36 1 -67 3 -70 4
-3 0 -7 13 -8 28 -3 43 -47 125 -88 167 -150 151 -401 109 -499 -84 -27 -53
-34 -96 -35 -202 l0 -78 -66 0 c-76 0 -104 -12 -104 -44 0 -36 21 -46 99 -47
l72 -1 -3 -126 -3 -126 -62 3 c-71 3 -103 -10 -103 -42 0 -38 19 -47 97 -47
l73 0 0 -125 0 -125 -66 0 c-76 0 -104 -12 -104 -43 0 -38 19 -47 97 -47 l73
0 0 -73 c0 -117 -16 -188 -68 -297 -23 -48 -177 -201 -232 -231 -46 -26 -159
-63 -217 -73 l-33 -6 0 250 c0 282 -8 257 89 259 30 1 57 3 59 6 2 2 5 19 5
37 l2 33 -75 5 -75 5 -3 128 -3 127 74 0 c78 0 97 9 97 47 0 31 -28 43 -104
43 l-66 0 0 124 0 124 72 1 c85 1 108 15 92 58 -9 27 -12 28 -87 31 l-77 3 0
124 0 125 73 0 c75 0 97 9 97 41 0 31 -30 43 -101 43 l-69 0 0 128 0 127 76 3
c60 2 79 7 88 21 8 12 8 22 0 35 -9 13 -28 18 -88 20 l-77 3 3 127 3 127 70 3
c73 4 95 13 95 42 0 32 -29 44 -101 44 l-69 -1 0 77 c0 105 -14 173 -52 249
-73 147 -208 236 -371 245 -40 2 -85 2 -102 0z"/>
</g>
</svg>
